<svg width="16" height="16" viewBox="0 0 16 16" fill="none" xmlns="http://www.w3.org/2000/svg">
<path d="M15.4286 11.617C13.7691 11.617 12.1886 11.2559 10.7314 10.5439C10.5943 10.4753 10.4366 10.4673 10.2937 10.5176C10.1497 10.5679 10.032 10.673 9.96572 10.809L9.06743 12.6684C6.74286 11.3713 4.81829 9.44787 3.52229 7.12331L5.38057 6.22274C5.51771 6.15645 5.62171 6.03874 5.672 5.89474C5.72114 5.75188 5.712 5.59417 5.64457 5.45703C4.93257 3.99989 4.57143 2.41933 4.57143 0.759903C4.57143 0.444476 4.31543 0.188477 4 0.188477H0.571429C0.256 0.188477 0 0.444476 0 0.759903C0 9.2673 6.92114 16.1884 15.4286 16.1884C15.744 16.1884 16 15.9324 16 15.617V12.1884C16 11.873 15.744 11.617 15.4286 11.617Z" fill="white"/>
</svg>
